<svg width="32" height="32" viewBox="0 0 32 32" xmlns="http://www.w3.org/2000/svg">
  <defs>
    <linearGradient id="grad1" x1="0%" y1="0%" x2="100%" y2="100%">
      <stop offset="0%" style="stop-color:#234C6A;stop-opacity:1" />
      <stop offset="100%" style="stop-color:#344F1F;stop-opacity:1" />
    </linearGradient>
  </defs>
  
  <!-- Background circle -->
  <circle cx="16" cy="16" r="15" fill="url(#grad1)" stroke="#D2C1B6" stroke-width="1"/>
  
  <!-- Shield icon for cybersecurity -->
  <path d="M16 4 L12 6 L12 14 C12 18 14 21 16 22 C18 21 20 18 20 14 L20 6 Z" 
        fill="#D2C1B6" 
        stroke="#D2C1B6" 
        stroke-width="0.5"/>
  
  <!-- Inner shield detail -->
  <path d="M16 6 L14 7 L14 13 C14 16 15 18 16 19 C17 18 18 16 18 13 L18 7 Z" 
        fill="none" 
        stroke="#234C6A" 
        stroke-width="0.8"/>
  
  <!-- Small lock icon in center -->
  <rect x="14.5" y="12" width="3" height="2.5" rx="0.3" fill="#234C6A"/>
  <path d="M15 12 C15 11.2 15.4 10.5 16 10.5 C16.6 10.5 17 11.2 17 12" 
        fill="none" 
        stroke="#234C6A" 
        stroke-width="0.6"/>
</svg>
